<svg width="162" height="70" viewBox="0 0 162 70" fill="none" xmlns="http://www.w3.org/2000/svg">
<g filter="url(#filter0_d_19_20)">
<path d="M13.5 8.5H110" stroke="url(#paint0_linear_19_20)" stroke-width="8.82289" stroke-linecap="round" shape-rendering="crispEdges"/>
</g>
<path d="M26.7891 48.8477H19.1914V45.7812H26.7891C28.2604 45.7812 29.4518 45.5469 30.3633 45.0781C31.2747 44.6094 31.9388 43.9583 32.3555 43.125C32.7852 42.2917 33 41.3411 33 40.2734C33 39.2969 32.7852 38.3789 32.3555 37.5195C31.9388 36.6602 31.2747 35.9701 30.3633 35.4492C29.4518 34.9154 28.2604 34.6484 26.7891 34.6484H20.0703V60H16.3008V31.5625H26.7891C28.9375 31.5625 30.7539 31.9336 32.2383 32.6758C33.7227 33.418 34.849 34.4466 35.6172 35.7617C36.3854 37.0638 36.7695 38.5547 36.7695 40.2344C36.7695 42.0573 36.3854 43.6133 35.6172 44.9023C34.849 46.1914 33.7227 47.1745 32.2383 47.8516C30.7539 48.5156 28.9375 48.8477 26.7891 48.8477ZM44.6016 42.1875V60H40.9883V38.8672H44.5039L44.6016 42.1875ZM51.2031 38.75L51.1836 42.1094C50.8841 42.0443 50.5977 42.0052 50.3242 41.9922C50.0638 41.9661 49.7643 41.9531 49.4258 41.9531C48.5924 41.9531 47.8568 42.0833 47.2188 42.3438C46.5807 42.6042 46.0404 42.9688 45.5977 43.4375C45.1549 43.9062 44.8034 44.4661 44.543 45.1172C44.2956 45.7552 44.1328 46.4583 44.0547 47.2266L43.0391 47.8125C43.0391 46.5365 43.1628 45.3385 43.4102 44.2188C43.6706 43.099 44.0677 42.1094 44.6016 41.25C45.1354 40.3776 45.8125 39.7005 46.6328 39.2188C47.4661 38.724 48.4557 38.4766 49.6016 38.4766C49.862 38.4766 50.1615 38.5091 50.5 38.5742C50.8385 38.6263 51.0729 38.6849 51.2031 38.75ZM53.1953 49.668V49.2188C53.1953 47.6953 53.4167 46.2826 53.8594 44.9805C54.3021 43.6654 54.9401 42.526 55.7734 41.5625C56.6068 40.5859 57.6159 39.8307 58.8008 39.2969C59.9857 38.75 61.3138 38.4766 62.7852 38.4766C64.2695 38.4766 65.6042 38.75 66.7891 39.2969C67.987 39.8307 69.0026 40.5859 69.8359 41.5625C70.6823 42.526 71.3268 43.6654 71.7695 44.9805C72.2122 46.2826 72.4336 47.6953 72.4336 49.2188V49.668C72.4336 51.1914 72.2122 52.6042 71.7695 53.9062C71.3268 55.2083 70.6823 56.3477 69.8359 57.3242C69.0026 58.2878 67.9935 59.043 66.8086 59.5898C65.6367 60.1237 64.3086 60.3906 62.8242 60.3906C61.3398 60.3906 60.0052 60.1237 58.8203 59.5898C57.6354 59.043 56.6198 58.2878 55.7734 57.3242C54.9401 56.3477 54.3021 55.2083 53.8594 53.9062C53.4167 52.6042 53.1953 51.1914 53.1953 49.668ZM56.8086 49.2188V49.668C56.8086 50.7227 56.9323 51.7188 57.1797 52.6562C57.4271 53.5807 57.7982 54.401 58.293 55.1172C58.8008 55.8333 59.4323 56.3997 60.1875 56.8164C60.9427 57.2201 61.8216 57.4219 62.8242 57.4219C63.8138 57.4219 64.6797 57.2201 65.4219 56.8164C66.1771 56.3997 66.8021 55.8333 67.2969 55.1172C67.7917 54.401 68.1628 53.5807 68.4102 52.6562C68.6706 51.7188 68.8008 50.7227 68.8008 49.668V49.2188C68.8008 48.1771 68.6706 47.194 68.4102 46.2695C68.1628 45.332 67.7852 44.5052 67.2773 43.7891C66.7826 43.0599 66.1576 42.487 65.4023 42.0703C64.6602 41.6536 63.7878 41.4453 62.7852 41.4453C61.7956 41.4453 60.9232 41.6536 60.168 42.0703C59.4258 42.487 58.8008 43.0599 58.293 43.7891C57.7982 44.5052 57.4271 45.332 57.1797 46.2695C56.9323 47.194 56.8086 48.1771 56.8086 49.2188ZM77.0625 38.8672H80.6953V62.5195C80.6953 63.8086 80.487 64.9023 80.0703 65.8008C79.6667 66.6992 79.0547 67.3763 78.2344 67.832C77.4271 68.3008 76.4049 68.5352 75.168 68.5352C74.8424 68.5352 74.4648 68.5026 74.0352 68.4375C73.5924 68.3724 73.2214 68.2943 72.9219 68.2031L72.9414 65.293C73.1888 65.3451 73.4688 65.3841 73.7812 65.4102C74.0938 65.4492 74.3672 65.4688 74.6016 65.4688C75.1354 65.4688 75.5846 65.3711 75.9492 65.1758C76.3138 64.9805 76.5872 64.668 76.7695 64.2383C76.9648 63.8086 77.0625 63.2357 77.0625 62.5195V38.8672ZM76.6914 33.2617C76.6914 32.6758 76.8737 32.181 77.2383 31.7773C77.6029 31.3737 78.1302 31.1719 78.8203 31.1719C79.5234 31.1719 80.0573 31.3737 80.4219 31.7773C80.7865 32.181 80.9688 32.6758 80.9688 33.2617C80.9688 33.8216 80.7865 34.3034 80.4219 34.707C80.0573 35.0977 79.5234 35.293 78.8203 35.293C78.1302 35.293 77.6029 35.0977 77.2383 34.707C76.8737 34.3034 76.6914 33.8216 76.6914 33.2617ZM95.3047 60.3906C93.8333 60.3906 92.4987 60.1432 91.3008 59.6484C90.1159 59.1406 89.0938 58.431 88.2344 57.5195C87.388 56.6081 86.737 55.5273 86.2812 54.2773C85.8255 53.0273 85.5977 51.6602 85.5977 50.1758V49.3555C85.5977 47.6367 85.8516 46.1068 86.3594 44.7656C86.8672 43.4115 87.5573 42.2656 88.4297 41.3281C89.3021 40.3906 90.2917 39.681 91.3984 39.1992C92.5052 38.7174 93.651 38.4766 94.8359 38.4766C96.3464 38.4766 97.6484 38.737 98.7422 39.2578C99.849 39.7786 100.754 40.5078 101.457 41.4453C102.16 42.3698 102.681 43.4635 103.02 44.7266C103.358 45.9766 103.527 47.3438 103.527 48.8281V50.4492H87.7461V47.5H99.9141V47.2266C99.862 46.2891 99.6667 45.3776 99.3281 44.4922C99.0026 43.6068 98.4818 42.8776 97.7656 42.3047C97.0495 41.7318 96.0729 41.4453 94.8359 41.4453C94.0156 41.4453 93.2604 41.6211 92.5703 41.9727C91.8802 42.3112 91.2878 42.819 90.793 43.4961C90.2982 44.1732 89.9141 45 89.6406 45.9766C89.3672 46.9531 89.2305 48.0794 89.2305 49.3555V50.1758C89.2305 51.1784 89.3672 52.1224 89.6406 53.0078C89.9271 53.8802 90.3372 54.6484 90.8711 55.3125C91.418 55.9766 92.0755 56.4974 92.8438 56.875C93.625 57.2526 94.5104 57.4414 95.5 57.4414C96.776 57.4414 97.8568 57.181 98.7422 56.6602C99.6276 56.1393 100.402 55.4427 101.066 54.5703L103.254 56.3086C102.798 56.9987 102.219 57.6562 101.516 58.2812C100.812 58.9062 99.9466 59.4141 98.918 59.8047C97.9023 60.1953 96.6979 60.3906 95.3047 60.3906ZM116.594 38.8672V41.6406H105.168V38.8672H116.594ZM109.035 33.7305H112.648V54.7656C112.648 55.4818 112.759 56.0221 112.98 56.3867C113.202 56.7513 113.488 56.9922 113.84 57.1094C114.191 57.2266 114.569 57.2852 114.973 57.2852C115.272 57.2852 115.585 57.2591 115.91 57.207C116.249 57.1419 116.503 57.0898 116.672 57.0508L116.691 60C116.405 60.0911 116.027 60.1758 115.559 60.2539C115.103 60.3451 114.549 60.3906 113.898 60.3906C113.013 60.3906 112.199 60.2148 111.457 59.8633C110.715 59.5117 110.122 58.9258 109.68 58.1055C109.25 57.2721 109.035 56.1523 109.035 54.7461V33.7305ZM119.484 49.668V49.2188C119.484 47.6953 119.706 46.2826 120.148 44.9805C120.591 43.6654 121.229 42.526 122.062 41.5625C122.896 40.5859 123.905 39.8307 125.09 39.2969C126.275 38.75 127.603 38.4766 129.074 38.4766C130.559 38.4766 131.893 38.75 133.078 39.2969C134.276 39.8307 135.292 40.5859 136.125 41.5625C136.971 42.526 137.616 43.6654 138.059 44.9805C138.501 46.2826 138.723 47.6953 138.723 49.2188V49.668C138.723 51.1914 138.501 52.6042 138.059 53.9062C137.616 55.2083 136.971 56.3477 136.125 57.3242C135.292 58.2878 134.283 59.043 133.098 59.5898C131.926 60.1237 130.598 60.3906 129.113 60.3906C127.629 60.3906 126.294 60.1237 125.109 59.5898C123.924 59.043 122.909 58.2878 122.062 57.3242C121.229 56.3477 120.591 55.2083 120.148 53.9062C119.706 52.6042 119.484 51.1914 119.484 49.668ZM123.098 49.2188V49.668C123.098 50.7227 123.221 51.7188 123.469 52.6562C123.716 53.5807 124.087 54.401 124.582 55.1172C125.09 55.8333 125.721 56.3997 126.477 56.8164C127.232 57.2201 128.111 57.4219 129.113 57.4219C130.103 57.4219 130.969 57.2201 131.711 56.8164C132.466 56.3997 133.091 55.8333 133.586 55.1172C134.081 54.401 134.452 53.5807 134.699 52.6562C134.96 51.7188 135.09 50.7227 135.09 49.668V49.2188C135.09 48.1771 134.96 47.194 134.699 46.2695C134.452 45.332 134.074 44.5052 133.566 43.7891C133.072 43.0599 132.447 42.487 131.691 42.0703C130.949 41.6536 130.077 41.4453 129.074 41.4453C128.085 41.4453 127.212 41.6536 126.457 42.0703C125.715 42.487 125.09 43.0599 124.582 43.7891C124.087 44.5052 123.716 45.332 123.469 46.2695C123.221 47.194 123.098 48.1771 123.098 49.2188ZM155.559 54.3945C155.559 53.8737 155.441 53.3919 155.207 52.9492C154.986 52.4935 154.523 52.0833 153.82 51.7188C153.13 51.3411 152.089 51.0156 150.695 50.7422C149.523 50.4948 148.462 50.2018 147.512 49.8633C146.574 49.5247 145.773 49.1146 145.109 48.6328C144.458 48.151 143.957 47.5846 143.605 46.9336C143.254 46.2826 143.078 45.5208 143.078 44.6484C143.078 43.8151 143.26 43.0273 143.625 42.2852C144.003 41.543 144.53 40.8854 145.207 40.3125C145.897 39.7396 146.724 39.2904 147.688 38.9648C148.651 38.6393 149.725 38.4766 150.91 38.4766C152.603 38.4766 154.048 38.776 155.246 39.375C156.444 39.974 157.362 40.7747 158 41.7773C158.638 42.7669 158.957 43.8672 158.957 45.0781H155.344C155.344 44.4922 155.168 43.9258 154.816 43.3789C154.478 42.819 153.977 42.3568 153.312 41.9922C152.661 41.6276 151.861 41.4453 150.91 41.4453C149.908 41.4453 149.094 41.6016 148.469 41.9141C147.857 42.2135 147.408 42.5977 147.121 43.0664C146.848 43.5352 146.711 44.0299 146.711 44.5508C146.711 44.9414 146.776 45.293 146.906 45.6055C147.049 45.9049 147.297 46.1849 147.648 46.4453C148 46.6927 148.495 46.9271 149.133 47.1484C149.771 47.3698 150.585 47.5911 151.574 47.8125C153.306 48.2031 154.732 48.6719 155.852 49.2188C156.971 49.7656 157.805 50.4362 158.352 51.2305C158.898 52.0247 159.172 52.9883 159.172 54.1211C159.172 55.0456 158.977 55.8919 158.586 56.6602C158.208 57.4284 157.655 58.0924 156.926 58.6523C156.21 59.1992 155.35 59.6289 154.348 59.9414C153.358 60.2409 152.245 60.3906 151.008 60.3906C149.146 60.3906 147.57 60.0586 146.281 59.3945C144.992 58.7305 144.016 57.8711 143.352 56.8164C142.688 55.7617 142.355 54.6484 142.355 53.4766H145.988C146.04 54.4661 146.327 55.2539 146.848 55.8398C147.368 56.4128 148.007 56.8229 148.762 57.0703C149.517 57.3047 150.266 57.4219 151.008 57.4219C151.997 57.4219 152.824 57.2917 153.488 57.0312C154.165 56.7708 154.68 56.4128 155.031 55.957C155.383 55.5013 155.559 54.9805 155.559 54.3945Z" fill="#69717E"/>
<defs>
<filter id="filter0_d_19_20" x="0.265675" y="0.0781589" width="118.156" height="21.6562" filterUnits="userSpaceOnUse" color-interpolation-filters="sRGB">
<feFlood flood-opacity="0" result="BackgroundImageFix"/>
<feColorMatrix in="SourceAlpha" type="matrix" values="0 0 0 0 0 0 0 0 0 0 0 0 0 0 0 0 0 0 127 0" result="hardAlpha"/>
<feOffset dx="-2.40624" dy="2.40624"/>
<feGaussianBlur stdDeviation="3.20832"/>
<feComposite in2="hardAlpha" operator="out"/>
<feColorMatrix type="matrix" values="0 0 0 0 0 0 0 0 0 0 0 0 0 0 0 0 0 0 0.25 0"/>
<feBlend mode="normal" in2="BackgroundImageFix" result="effect1_dropShadow_19_20"/>
<feBlend mode="normal" in="SourceGraphic" in2="effect1_dropShadow_19_20" result="shape"/>
</filter>
<linearGradient id="paint0_linear_19_20" x1="131.873" y1="9.00069" x2="10.9267" y2="9.00078" gradientUnits="userSpaceOnUse">
<stop stop-color="#57AAF6"/>
<stop offset="1" stop-color="#8EB9E1" stop-opacity="0.85"/>
</linearGradient>
</defs>
</svg>
